<svg width="104" height="29" viewBox="0 0 104 29" fill="none" xmlns="http://www.w3.org/2000/svg">
  <path d="M5.35255 0.101682C3.22394 0.977517 0.883882 3.45186 0.144816 6.5577C-0.791154 10.4929 3.10385 12.157 3.42332 11.6114C3.79934 10.9702 2.72538 10.7534 2.50432 8.71166C2.21861 6.07454 3.46584 3.12785 5.03553 1.83493C5.3273 1.59472 5.31342 1.92906 5.31342 2.54747C5.31342 3.65335 5.25126 13.5809 5.25126 15.6528C5.25126 18.4563 5.13346 19.3416 4.92189 20.2164C4.70752 21.1029 4.36289 21.7019 4.62403 21.9326C4.9158 22.1907 6.16152 21.5768 6.88269 20.5874C7.74747 19.4008 8.05019 17.9757 8.10454 16.4281C8.17018 14.5626 8.16738 11.6023 8.17018 9.91379C8.17281 8.36517 8.19672 3.83047 8.14257 1.10437C8.12929 0.435719 6.24275 -0.265799 5.35245 0.100868L5.35255 0.101682ZM80.9396 13.2219C80.8709 14.6794 80.5427 15.8186 80.1354 16.6222C79.3468 18.1778 77.7104 18.6609 77.0156 16.4246C76.637 15.2056 76.6193 13.1697 76.8915 11.4687C77.1686 9.73574 77.9423 8.427 79.2235 8.54503C80.4872 8.6617 81.0787 10.2623 80.9396 13.2219V13.2219ZM59.636 22.2645C59.6188 24.6862 59.2311 26.8095 58.3996 27.4262C57.2203 28.3007 55.6352 27.6447 55.9635 25.8776C56.2539 24.3138 57.6273 22.7169 59.6393 20.7656C59.6393 20.7656 59.6435 21.2106 59.636 22.2645H59.636ZM59.3139 13.2078C59.2418 14.5353 58.8917 15.8689 58.5097 16.6224C57.7213 18.178 56.073 18.6643 55.39 16.4248C54.923 14.8946 55.0348 12.9142 55.2659 11.6664C55.5657 10.0474 56.2926 8.54537 57.5979 8.54537C58.867 8.54537 59.4928 9.91401 59.3139 13.2079V13.2078ZM46.9727 13.1875C46.8954 14.5934 46.6163 15.7687 46.1685 16.6224C45.3584 18.1673 43.7557 18.6572 43.0488 16.4248C42.5392 14.815 42.7127 12.62 42.9247 11.4342C43.2393 9.67466 44.027 8.42717 45.2567 8.54537C46.5199 8.66668 47.1339 10.2625 46.9727 13.1876V13.1875ZM103.53 14.8297C103.221 14.8297 103.08 15.1426 102.963 15.6692C102.559 17.5004 102.134 17.9138 101.586 17.9138C100.973 17.9138 100.423 17.0071 100.282 15.1921C100.171 13.7648 100.189 11.1373 100.331 8.52353C100.36 7.98651 100.209 7.45517 98.7437 6.9319C98.1131 6.70683 97.1966 6.37543 96.7402 7.45826C95.4508 10.5175 94.9463 12.9462 94.8276 13.9329C94.8215 13.9839 94.7578 13.9944 94.7466 13.8751C94.671 13.0848 94.5019 11.6488 94.4809 8.63178C94.4768 8.04312 94.3499 7.54206 93.689 7.13184C93.2601 6.86566 91.9577 6.39488 91.4887 6.95496C91.0825 7.41301 90.6119 8.6457 90.123 10.1069C89.7257 11.2945 89.4489 12.0979 89.4489 12.0979C89.4489 12.0979 89.4541 8.89349 89.4589 7.67799C89.461 7.21943 89.141 7.06663 89.0445 7.03893C88.6102 6.91503 87.7546 6.70805 87.3914 6.70805C86.9432 6.70805 86.8335 6.95427 86.8335 7.31304C86.8335 7.36001 86.7628 11.532 86.7628 14.4492C86.7628 14.576 86.7628 14.7142 86.7641 14.8611C86.5162 16.2019 85.7124 18.022 84.8382 18.022C83.9629 18.022 83.55 17.261 83.55 13.7832C83.55 11.7544 83.6119 10.8722 83.6424 9.40478C83.6601 8.55957 83.6942 7.91052 83.6923 7.76323C83.6859 7.31156 82.8913 7.08391 82.5216 6.99977C82.1501 6.91493 81.8273 6.88207 81.5753 6.89618C81.2185 6.91596 80.9661 7.14603 80.9661 7.46246C80.9661 7.63212 80.968 7.95475 80.968 7.95475C80.5085 7.24497 79.7695 6.75095 79.2778 6.60779C77.9533 6.22116 76.5713 6.56374 75.5289 7.9976C74.7004 9.13687 74.201 10.4272 74.0044 12.2811C73.8607 13.6364 73.9076 15.0108 74.163 16.1731C73.8544 17.4846 73.2815 18.022 72.6541 18.022C71.7433 18.022 71.083 16.5607 71.1597 14.0334C71.2102 12.3711 71.5486 11.2046 71.9185 9.51696C72.0762 8.79754 71.9481 8.42088 71.6267 8.05988C71.3319 7.72882 70.7038 7.55968 69.8009 7.76771C69.1578 7.91603 68.2383 8.07554 67.397 8.19805C67.397 8.19805 67.4477 7.99897 67.4894 7.64796C67.7082 5.80716 65.6733 5.95651 65.024 6.54447C64.6364 6.89549 64.3726 7.30949 64.2725 8.05386C64.1137 9.23512 65.0938 9.79228 65.0938 9.79228C64.7723 11.2392 63.984 13.1294 63.1702 14.4959C62.7344 15.2281 62.4009 15.7707 61.9704 16.3474C61.9689 16.1326 61.9677 15.9179 61.9669 15.7042C61.957 12.6622 61.9982 10.268 62.0164 9.40506C62.0341 8.55987 62.0686 7.92803 62.0667 7.78074C62.0618 7.45037 61.8655 7.32561 61.4573 7.16765C61.0964 7.02794 60.6696 6.93123 60.2269 6.89751C59.6681 6.85466 59.3315 7.14598 59.3403 7.49046C59.342 7.5555 59.342 7.95487 59.342 7.95487C58.8824 7.24508 58.1434 6.75108 57.6517 6.60791C56.3272 6.22144 54.9452 6.56404 53.9028 7.99772C53.0745 9.13698 52.532 10.7357 52.3783 12.2671C52.2351 13.6944 52.2615 14.9073 52.4567 15.9291C52.2461 16.9522 51.6406 18.0221 50.956 18.0221C50.0808 18.0221 49.5828 17.2612 49.5828 13.7834C49.5828 11.7545 49.6447 10.8723 49.6752 9.40506C49.6929 8.55987 49.727 7.91065 49.7251 7.76353C49.7186 7.31185 48.924 7.0842 48.5543 6.99989C48.1675 6.91196 47.8335 6.87962 47.577 6.89819C47.2387 6.92297 47.0008 7.22083 47.0008 7.44297V7.95487C46.5413 7.24508 45.8022 6.75108 45.3105 6.60791C43.9861 6.22144 42.6118 6.56955 41.5616 7.99772C40.8768 8.92895 40.3224 9.96137 40.0371 12.2468C39.9547 12.9072 39.9183 13.5257 39.923 14.1038C39.6499 15.7453 38.4438 17.6374 37.4572 17.6374C36.8799 17.6374 36.3301 16.5367 36.3301 14.1908C36.3301 11.066 36.5268 6.61704 36.5601 6.18824C36.5601 6.18824 37.8066 6.16742 38.048 6.16466C38.6698 6.15795 39.2329 6.17241 40.0611 6.13077C40.4765 6.10995 40.8767 4.64461 40.448 4.46325C40.2537 4.38117 38.8804 4.30925 38.336 4.29789C37.8782 4.2877 36.6039 4.19499 36.6039 4.19499C36.6039 4.19499 36.7182 1.24194 36.7448 0.929991C36.7674 0.669992 36.4251 0.536127 36.2289 0.4549C35.7517 0.256509 35.3248 0.161521 34.8187 0.0589701C34.1196 -0.0828075 33.8024 0.0558726 33.7404 0.635916C33.6471 1.51623 33.5988 4.09468 33.5988 4.09468C33.0857 4.09468 31.3331 3.99609 30.8199 3.99609C30.343 3.99609 29.8284 6.01187 30.4876 6.03664C31.2461 6.06556 32.5679 6.09051 33.4442 6.11649C33.4442 6.11649 33.4052 10.6388 33.4052 12.035C33.4052 12.1835 33.4065 12.3266 33.4068 12.4653C32.9245 14.9363 31.2258 16.271 31.2258 16.271C31.5906 14.6363 30.8454 13.4088 29.5032 12.3697C29.0086 11.9868 28.0324 11.2618 26.9401 10.4675C26.9401 10.4675 27.5727 9.85454 28.1337 8.6215C28.5313 7.74808 28.5484 6.74853 27.5727 6.52812C25.9605 6.16367 24.6312 7.32754 24.2347 8.57005C23.9275 9.5326 24.0913 10.2469 24.6931 10.9888C24.7371 11.043 24.7847 11.0984 24.8339 11.1542C24.4699 11.8437 23.97 12.772 23.5466 13.4919C22.3713 15.4907 21.4834 17.0716 20.8125 17.0716C20.2761 17.0716 20.2833 15.4665 20.2833 13.9637C20.2833 12.6682 20.3806 10.7204 20.4583 8.70375C20.4841 8.03681 20.1448 7.65688 19.5761 7.31274C19.2305 7.10368 18.493 6.69261 18.0659 6.69261C17.4266 6.69261 15.5821 6.77812 13.8394 11.7335C13.6197 12.3581 13.1882 13.4962 13.1882 13.4962L13.2254 7.53712C13.2254 7.39741 13.1497 7.26233 12.9763 7.16992C12.6827 7.01317 11.8983 6.69261 11.2008 6.69261C10.8685 6.69261 10.7027 6.84455 10.7027 7.14739L10.6418 16.4704C10.6418 17.1788 10.6606 18.0052 10.7319 18.3666C10.8029 18.7285 10.9179 19.0229 11.0603 19.1981C11.2025 19.3729 11.367 19.5063 11.6383 19.5613C11.8908 19.6124 13.2732 19.7869 13.345 19.2676C13.4311 18.6452 13.4344 17.9721 14.1603 15.4616C15.2904 11.553 16.7638 9.646 17.4565 8.96873C17.5776 8.85036 17.7159 8.84329 17.7092 9.03704C17.6797 9.89395 17.5757 12.0352 17.5057 13.8543C17.318 18.7225 18.219 19.6248 19.5065 19.6248C20.4915 19.6248 21.88 18.6627 23.3684 16.2275C24.2964 14.7098 25.1974 13.2218 25.8447 12.1493C26.2958 12.5597 26.802 13.0015 27.3079 13.4735C28.4836 14.5703 28.8696 15.6125 28.6135 16.6012C28.4176 17.357 27.6799 18.136 26.367 17.3789C25.9844 17.158 25.8211 16.9874 25.4363 16.7383C25.2296 16.6046 24.914 16.5646 24.7247 16.7047C24.2332 17.069 23.9521 17.5324 23.7915 18.1061C23.6354 18.6643 24.2041 18.9594 24.7937 19.2175C25.3013 19.4396 26.3924 19.6409 27.0883 19.6638C29.7994 19.753 31.9713 18.3771 33.4832 14.828C33.7538 17.8931 34.9056 19.6275 36.9068 19.6275C38.2447 19.6275 39.5861 17.9276 40.1727 16.2553C40.3411 16.937 40.5904 17.5298 40.9123 18.0311C42.4543 20.4326 45.4457 19.9157 46.9484 17.8764C47.4129 17.2463 47.4836 17.0198 47.4836 17.0198C47.7028 18.9455 49.2804 19.6183 50.1836 19.6183C51.1952 19.6183 52.2397 19.1482 52.9718 17.5281C53.0576 17.7039 53.1512 17.8718 53.2535 18.031C54.7955 20.4326 57.7869 19.9157 59.2895 17.8764C59.3604 17.7807 59.4219 17.6939 59.4756 17.616L59.5197 18.8809C59.5197 18.8809 58.6625 19.6539 58.1363 20.128C55.8204 22.2166 54.0594 23.8012 53.9299 25.6465C53.7636 27.9993 55.7049 28.8738 57.1735 28.9884C58.7332 29.11 60.0689 28.2631 60.8898 27.0779C61.6119 26.0347 62.0846 23.7893 62.0499 21.5717C62.0361 20.6837 62.0133 19.5545 61.9954 18.3442C62.8094 17.415 63.7265 16.2407 64.571 14.866C65.4912 13.3679 66.4774 11.3561 66.9824 9.79048C66.9824 9.79048 67.8393 9.79771 68.7538 9.73887C69.0463 9.72011 69.1303 9.77878 69.0762 9.98957C69.0109 10.2442 67.9209 14.377 68.9157 17.1301C69.5966 19.0148 71.1316 19.6211 72.0417 19.6211C73.1071 19.6211 74.1262 18.8303 74.6724 17.6559C74.7382 17.7869 74.807 17.9135 74.8821 18.0305C76.4241 20.4321 79.405 19.9121 80.9181 17.8758C81.2597 17.4164 81.4534 17.0193 81.4534 17.0193C81.7782 19.0122 83.3548 19.6278 84.2579 19.6278C85.1986 19.6278 86.0914 19.2487 86.8158 17.564C86.846 18.3058 86.8936 18.9124 86.9689 19.1036C87.0148 19.2205 87.2821 19.3673 87.4766 19.4382C88.3371 19.7519 89.2148 19.6036 89.5395 19.5391C89.7645 19.4943 89.9399 19.3169 89.9638 18.8589C90.0269 17.6561 89.9882 15.6353 90.3591 14.1335C90.9818 11.613 91.5626 10.6353 91.8381 10.1513C91.9923 9.88013 92.1663 9.83539 92.1726 10.1224C92.1856 10.7031 92.215 12.4085 92.4562 14.6998C92.6333 16.3849 92.87 17.381 93.0519 17.6962C93.5709 18.5977 94.2119 18.6403 94.734 18.6403C95.066 18.6403 95.7604 18.5501 95.6983 17.9765C95.668 17.6969 95.7211 15.9688 96.335 13.4856C96.7358 11.8641 97.4042 10.3989 97.6452 9.86326C97.7341 9.66572 97.7754 9.82144 97.774 9.85177C97.7233 10.9685 97.6093 14.6212 98.0721 16.6189C98.6995 19.3252 100.514 19.628 101.147 19.628C102.497 19.628 103.601 18.6185 103.973 15.9621C104.063 15.3228 103.93 14.8292 103.533 14.8292" fill="#262626"></path>
</svg>