<?xml version="1.0" encoding="UTF-8"?>
<svg width="23px" height="20px" viewBox="0 0 23 20" version="1.1" xmlns="http://www.w3.org/2000/svg" xmlns:xlink="http://www.w3.org/1999/xlink">
    <!-- Generator: Sketch 55 (78076) - https://sketchapp.com -->
    <title>Camera</title>
    <desc>Created with Sketch.</desc>
    <g id="Web" stroke="none" stroke-width="1" fill="none" fill-rule="evenodd">
        <g id="Home" transform="translate(-1167.000000, -26.000000)" stroke="#000000" stroke-width="1.41176471">
            <g id="Camera" transform="translate(1167.000000, 26.000000)">
                <path d="M7.42787379,1.9574166 L6.32424837,3.56302521 L3.77222737,3.56302521 C2.07978409,3.56302521 0.705882353,4.93263631 0.705882353,6.61921561 L0.705882353,16.2379272 C0.705882353,17.9214459 2.08066855,19.2941176 3.77222737,19.2941176 L19.2277726,19.2941176 C20.9202159,19.2941176 22.2941176,17.9245065 22.2941176,16.2379272 L22.2941176,6.61921561 C22.2941176,4.93569695 20.9193315,3.56302521 19.2277726,3.56302521 L16.6638269,3.56302521 L15.5691734,1.95190325 C15.1169623,1.28633441 14.0184117,0.705882353 13.2100195,0.705882353 L9.80312347,0.705882353 C8.99847477,0.705882353 7.88602887,1.29087003 7.42787379,1.9574166 Z" id="Combined-Shape"></path>
                <ellipse id="Oval-2" cx="11.5" cy="11.4285714" rx="5.04411765" ry="5.00840336"></ellipse>
            </g>
        </g>
    </g>
</svg>