<svg class="mr-8 cursor-pointer" width="24" height="24" viewBox="0 0 24 24" fill="none" xmlns="http://www.w3.org/2000/svg">
  <path fill-rule="evenodd" clip-rule="evenodd" d="M12 0.25C18.5 0.25 23.75 5.5 23.75 12C23.75 18.5 18.5 23.75 12 23.75C5.5 23.75 0.25 18.5 0.25 12C0.25 5.5 5.5 0.25 12 0.25ZM12 22.25C17.65 22.25 22.25 17.65 22.25 12C22.25 6.35 17.65 1.75 12 1.75C6.35 1.75 1.75 6.35 1.75 12C1.75 17.65 6.35 22.25 12 22.25ZM9.8 10.4C9.95 10.15 10.15 9.95 10.4 9.8L17.8 5.75C17.95 5.7 18.1 5.7 18.2 5.8C18.3 5.9 18.35 6.05 18.25 6.2L14.2 13.6C14.05 13.85 13.85 14.05 13.6 14.2L6.2 18.25C6.05 18.3 5.9 18.3 5.8 18.2C5.7 18.1 5.65 17.95 5.75 17.8L9.8 10.4V10.4ZM12.9 12.9L15.05 9L11.15 11.15L12.9 12.9Z" fill="#262626" />
</svg>