<?xml version="1.0" encoding="UTF-8"?>
<svg width="133px" height="31px" viewBox="0 0 133 31" version="1.1" xmlns="http://www.w3.org/2000/svg" xmlns:xlink="http://www.w3.org/1999/xlink">
    <!-- Generator: Sketch 55 (78076) - https://sketchapp.com -->
    <title>logo</title>
    <desc>Created with Sketch.</desc>
    <g id="Web" stroke="none" stroke-width="1" fill="none" fill-rule="evenodd">
        <g id="Home" transform="translate(-250.000000, -21.000000)">
            <g id="logo" transform="translate(250.000000, 20.000000)">
                <path d="M18.2857361,15.5714149 C18.2857361,13.0535548 16.2321622,10.9999809 13.7143021,10.9999809 C11.1964419,10.9999809 9.14286804,13.0535548 9.14286804,15.5714149 C9.14286804,18.0892751 11.1964419,20.142849 13.7143021,20.142849 C16.2321622,20.142849 18.2857361,18.0892751 18.2857361,15.5714149 Z M20.7500247,15.5714149 C20.7500247,19.4642767 17.6071638,22.6071376 13.7143021,22.6071376 C9.82144028,22.6071376 6.67857939,19.4642767 6.67857939,15.5714149 C6.67857939,11.6785532 9.82144028,8.53569227 13.7143021,8.53569227 C17.6071638,8.53569227 20.7500247,11.6785532 20.7500247,15.5714149 Z M22.6785985,8.24997765 C22.6785985,9.16069302 21.9464547,9.89283675 21.0357394,9.89283675 C20.125024,9.89283675 19.3928803,9.16069302 19.3928803,8.24997765 C19.3928803,7.33926228 20.125024,6.60711855 21.0357394,6.60711855 C21.9464547,6.60711855 22.6785985,7.33926228 22.6785985,8.24997765 Z M13.7143021,4.32140154 C11.7142997,4.32140154 7.42858028,4.16068706 5.62500671,4.87497362 C5.00000596,5.12497392 4.53571969,5.42854571 4.05357626,5.91068915 C3.57143283,6.39283258 3.26786104,6.85711884 3.01786074,7.48211959 C2.30357417,9.28569317 2.46428865,13.5714126 2.46428865,15.5714149 C2.46428865,17.5714173 2.30357417,21.8571367 3.01786074,23.6607103 C3.26786104,24.2857111 3.57143283,24.7499973 4.05357626,25.2321407 C4.53571969,25.7142842 5.00000596,26.017856 5.62500671,26.2678563 C7.42858028,26.9821428 11.7142997,26.8214284 13.7143021,26.8214284 C15.7143044,26.8214284 20.0000238,26.9821428 21.8035974,26.2678563 C22.4285982,26.017856 22.8928844,25.7142842 23.3750279,25.2321407 C23.8571713,24.7499973 24.1607431,24.2857111 24.4107434,23.6607103 C25.12503,21.8571367 24.9643155,17.5714173 24.9643155,15.5714149 C24.9643155,13.5714126 25.12503,9.28569317 24.4107434,7.48211959 C24.1607431,6.85711884 23.8571713,6.39283258 23.3750279,5.91068915 C22.8928844,5.42854571 22.4285982,5.12497392 21.8035974,4.87497362 C20.0000238,4.16068706 15.7143044,4.32140154 13.7143021,4.32140154 Z M27.4286041,15.5714149 C27.4286041,17.4642743 27.4464613,19.3392766 27.3393183,21.232136 C27.2321753,23.4285672 26.7321747,25.3749981 25.12503,26.9821428 C23.5178852,28.5892876 21.5714543,29.0892882 19.3750231,29.1964312 C17.4821637,29.3035742 15.6071615,29.285717 13.7143021,29.285717 C11.8214427,29.285717 9.94644043,29.3035742 8.05358103,29.1964312 C5.85714984,29.0892882 3.91071895,28.5892876 2.30357417,26.9821428 C0.696429402,25.3749981 0.196428806,23.4285672 0.0892858207,21.232136 C-0.0178571641,19.3392766 0,17.4642743 0,15.5714149 C0,13.6785555 -0.0178571641,11.8035533 0.0892858207,9.91069391 C0.196428806,7.71426272 0.696429402,5.76783183 2.30357417,4.16068706 C3.91071895,2.55354229 5.85714984,2.05354169 8.05358103,1.94639871 C9.94644043,1.83925572 11.8214427,1.85711288 13.7143021,1.85711288 C15.6071615,1.85711288 17.4821637,1.83925572 19.3750231,1.94639871 C21.5714543,2.05354169 23.5178852,2.55354229 25.12503,4.16068706 C26.7321747,5.76783183 27.2321753,7.71426272 27.3393183,9.91069391 C27.4464613,11.8035533 27.4286041,13.6785555 27.4286041,15.5714149 Z" id="" fill="#000000" fill-rule="nonzero"></path>
                <path d="M110.292339,13.0933725 C109.733044,13.1147606 108.419561,13.4815438 108.182971,17.1480107 C107.946381,20.8140224 108.914496,21.7628351 109.733044,21.8706857 C110.550231,21.9785363 111.992433,20.6633956 112.078095,16.7593843 C112.164664,12.8562831 110.292339,13.0933725 110.292339,13.0933725 M92.5553354,24.3676329 C89.320578,27.17448 89.0409304,29.1795009 89.0409304,29.1795009 C89.0409304,29.1795009 88.7213978,30.8236544 90.2791757,30.903746 C92.1510473,31.0944186 92.4651411,28.8118075 92.5154504,26.8136127 C92.5399253,25.8702609 92.5553354,24.3676329 92.5553354,24.3676329 M90.6385932,12.979606 C90.0706864,13.0014492 88.641628,13.5011117 88.319376,17.0501715 C88.07916,20.7644202 89.0617793,21.7259747 89.8921107,21.8351905 C90.7224422,21.9444064 92.1863999,20.611518 92.2729683,16.6569944 C92.3608964,12.7020157 90.6385932,12.979606 90.6385932,12.979606 M79.1902626,12.9632236 C78.6309673,12.9846117 77.3174845,13.3513949 77.0813476,17.0178618 C76.8447576,20.6838735 77.8128732,21.6326862 78.6309673,21.7405368 C79.448608,21.8483875 80.8903571,20.5332467 80.976019,16.6296905 C81.0630407,12.7256792 79.1902626,12.9632236 79.1902626,12.9632236 M133,19.1985381 C133,23.3628471 130.48725,23.2964075 130.48725,23.2964075 C128.096422,23.3815048 127.485004,20.8445118 127.334076,18.2656528 C127.220766,16.3261614 127.334076,14.1677834 127.334076,14.1677834 C127.334076,14.1677834 127.317306,14.0681239 127.251586,14.1677834 C126.452075,15.6253598 125.908643,17.8369806 125.642139,19.5484839 C125.448607,20.790359 125.428665,21.8301848 125.428665,21.8301848 C125.428665,21.8301848 125.461751,22.0636337 125.264139,22.196968 C123.966973,22.79629 123.12939,21.9466817 122.833879,20.997414 C122.440015,20.0982036 122.20977,14.6842833 122.20977,14.4012322 C122.20977,14.1177261 121.979526,14.3347926 121.979526,14.3347926 C120.18969,17.3496049 120.173374,21.7805826 120.173374,22.6797931 C120.173374,23.5794586 118.645963,23.2964075 118.645963,23.2964075 C117.348343,23.196293 117.397746,22.5632962 117.397746,22.5632962 L117.338825,21.4879752 C116.888307,22.3230213 116.049817,23.4074436 114.761262,23.3237115 C112.810527,23.1972031 112.432074,21.1689739 112.40352,20.8267643 C112.40352,20.8267643 111.432685,23.3523806 108.760395,23.3237115 C106.945632,23.2954974 106.217279,21.4115241 106.217279,21.4115241 C106.217279,21.4115241 105.488473,23.3805947 103.703169,23.3096044 C101.91696,23.2381591 100.445297,21.1689739 100.559513,18.4868149 C100.673729,15.8042007 101.087988,14.4626661 101.087988,14.4626661 C101.087988,14.4626661 101.231211,14.1914468 100.988276,14.1773397 C100.745794,14.1632327 99.2025192,14.2060089 99.2025192,14.2060089 C99.2025192,14.2060089 98.3309432,17.7163881 94.6452143,22.0822914 C94.6452143,22.0822914 94.6746748,23.4470344 94.673315,24.9651346 C94.6715021,27.8352359 94.3161638,31.6855494 90.4446075,32 C87.0947278,31.772467 87.2837279,29.1795009 87.2837279,29.1795009 C87.203958,28.4177204 87.6830303,27.0142968 89.6799955,25.1294134 C91.6769607,23.244985 92.4755655,22.5232504 92.4755655,22.5232504 L92.3962489,21.3200558 C91.1176654,23.4452141 89.1610383,23.3250767 89.1610383,23.3250767 C89.1610383,23.3250767 87.6499439,23.6336114 86.3790655,21.3760289 C86.0051444,22.1491861 85.1562302,23.4684225 83.7675099,23.3150652 C81.8158685,23.0993639 81.4283502,21.1439453 81.3997963,20.7990052 C81.3997963,20.7990052 80.4244288,23.3437344 77.7412617,23.3150652 C75.918793,23.285941 75.1872673,21.3887708 75.1872673,21.3887708 C74.9760586,21.00424 74.8133463,20.4208454 74.7281376,20.0772706 C74.7063822,20.1473507 74.6814541,20.2238018 74.647008,20.3129947 C74.2336553,21.3746637 73.2102446,23.2258723 71.6402292,23.2495357 C68.7558246,23.2495357 68.6339037,18.7571241 68.6339037,18.7571241 C67.7999463,20.7498581 66.1664777,23.3023234 63.1252529,23.2850309 C60.084028,23.2668282 59.7191717,22.1660235 59.7191717,22.0085707 C59.7191717,21.8511179 59.6670494,21.6763725 60.0146827,21.169429 C60.362316,20.6624854 60.6578269,20.4527 60.9007623,20.4527 C61.144151,20.4527 61.5788059,20.8199383 61.5788059,20.8199383 C61.5788059,20.8199383 62.2391732,21.466132 62.9861089,21.466132 C63.9419872,21.431547 64.1504765,20.6624854 64.2202751,19.8756763 C64.2896205,19.0893222 63.7334979,18.2501805 62.9688859,17.5507441 C62.2042739,16.8517627 61.613252,16.3275266 61.613252,16.3275266 C60.518683,18.1805554 59.6842724,19.4388129 59.0764807,20.5227802 C57.5989258,22.9350851 56.1331552,23.3082392 55.5661548,23.2322432 C54.7838666,23.127578 54.0364776,22.3230213 54.0020316,19.9807966 C53.9671323,17.6385718 54.1756216,13.6353561 54.1756216,13.4255707 C54.1756216,13.2157853 53.9848085,13.3209055 53.9848085,13.3209055 C51.0650514,16.4321918 50.1961947,22.8299648 50.1961947,22.9523776 C50.1961947,23.0752454 49.9355831,23.2144956 49.6749714,23.2144956 C49.4143597,23.2144956 49.761993,23.1972031 48.7190931,23.162163 C47.6766465,23.127578 47.7459918,21.134844 47.7459918,21.134844 L47.8153372,11.6071269 C47.8325602,11.2926763 48.1285244,11.152971 49.1188488,11.4150891 C50.1096263,11.6772071 50.074727,12.0094053 50.074727,12.0094053 L50.0398277,17.5334516 C52.5942753,9.96433863 54.5232549,11.152971 55.6876225,11.7295397 C56.8519901,12.3065634 56.6956231,13.1457051 56.6956231,13.1457051 C56.6956231,13.1457051 56.5741554,17.3063736 56.5215798,18.7748716 C56.4699107,20.2433696 56.6779468,20.8199383 57.0083571,20.8727259 C57.8250914,21.0647638 60.7271723,15.4355973 60.7271723,15.4355973 C59.441337,14.0371794 60.1434022,12.3302268 61.144151,11.5898344 C61.8240075,11.0865314 62.6561519,11.0305583 62.6561519,11.0305583 C62.6561519,11.0305583 63.9592102,10.9604781 63.9247642,12.0617379 C63.9592102,13.2681179 62.6212526,14.7366159 62.6212526,14.7366159 C65.2105995,16.5896447 66.4270894,17.5684916 66.6183557,19.0014945 C66.7040176,19.6890992 66.5485571,20.1205018 66.5485571,20.1205018 C68.3909683,18.5122985 68.529659,16.7120574 68.529659,16.7120574 L68.5645583,10.6983601 L65.8365207,10.6637751 C65.8365207,10.6637751 65.6280314,10.6460275 65.5931321,10.139084 C65.5931321,9.1775295 66.0971324,8.77525114 66.0971324,8.77525114 L68.7037023,8.81029123 C68.7037023,8.81029123 68.7907239,6.10082821 68.807947,5.66350977 C68.8945154,5.03460855 69.294271,4.94678081 70.4414156,5.24393891 C71.5881069,5.54109701 71.5881069,5.80321504 71.5881069,5.80321504 L71.4489629,8.96774407 C71.4489629,8.96774407 74.3165978,9.10744933 74.6991304,9.14248941 C75.0812097,9.1775295 75.2026774,9.28219468 75.116109,9.92884348 C75.0290874,10.5759473 74.647008,10.7334002 74.647008,10.7334002 L71.4145169,10.8030253 L71.1888045,17.7782771 C71.1888045,18.8617892 71.2404736,21.4142545 72.2484742,21.3965069 C73.6562305,21.466132 74.490641,18.3025131 74.490641,18.3025131 L74.5060511,18.2774845 C74.4901878,17.7841929 74.500159,17.1926071 74.5704109,16.5286658 C74.8369146,13.9866671 75.9659297,11.007805 78.5584492,11.007805 C78.5584492,11.007805 80.1370761,10.9504667 80.9692205,12.5318211 L80.9977744,11.9566176 C80.9977744,11.9566176 80.9402133,11.2667375 82.0311564,11.4392076 C83.1216462,11.6116776 83.4942076,12.0430802 83.4656536,12.3880202 C83.4656536,12.3880202 83.2648693,16.8162675 83.3799917,19.4333521 C83.5259342,20.9532726 83.7860927,21.852028 84.5561435,21.7905941 C85.2201367,21.693665 85.6915039,20.7821678 85.9770436,20.0058252 C85.0130071,11.9538872 89.4017076,10.9777706 89.4017076,10.9777706 C89.4017076,10.9777706 91.3442843,10.8348799 92.2299107,12.4617409 L92.2584647,11.9193022 C92.2584647,11.9193022 92.1728028,11.2062138 93.2021055,11.4059877 C93.2021055,11.4059877 93.6304151,11.462871 94.087732,11.6339758 C94.5445955,11.8050806 94.6873654,11.9193022 94.6873654,12.3475193 C94.6873654,12.7752814 94.6017035,20.2988877 94.6017035,20.2988877 C94.6017035,20.2988877 96.8878344,17.2167256 97.4593671,14.2201159 C97.4593671,14.2201159 96.6594026,13.620794 96.7169638,12.7648148 C96.7736185,11.9083806 97.2019281,10.8812966 98.4596627,10.8812966 C99.716944,10.8812966 99.7740519,11.993933 99.5741741,12.7648148 C99.5741741,12.7648148 100.631124,12.6219241 101.545305,12.393481 C102.459938,12.1654929 103.688666,12.0226022 103.774328,13.4496892 C103.831436,13.9634587 103.602551,14.3630067 103.602551,14.3630067 C103.602551,14.3630067 102.888248,17.5307212 103.002464,18.8149174 C103.117133,20.0991137 103.460234,22.0395152 104.460076,21.811072 C105.459919,21.583084 105.80302,20.156452 105.80302,20.156452 C105.80302,20.156452 105.400998,18.5050175 105.602689,16.5887345 C105.868739,14.0658486 106.992769,11.1097398 109.57441,11.1097398 C109.57441,11.1097398 111.146239,11.0524015 111.97521,12.6219241 L112.003311,12.0512713 C112.003311,12.0512713 111.946203,11.366397 113.032614,11.5375018 C114.117665,11.7090617 114.489773,12.1368238 114.460766,12.4790334 C114.460766,12.4790334 114.260888,16.8740609 114.375557,19.4715777 C114.520593,20.9801215 114.779392,21.8720509 115.546723,21.811072 C116.286407,21.7892289 116.910062,20.5341568 117.295768,19.5107134 L117.290782,19.1320985 L117.31571,11.710882 C117.37735,11.2863054 117.75943,11.2612768 117.75943,11.2612768 L118.645963,11.3987067 C119.8901,11.5861939 119.717416,12.0608277 119.717416,12.0608277 L119.717416,16.2583566 C120.641115,13.4100984 121.084835,12.3229458 121.503626,11.5984807 C121.860324,10.9809561 123.030584,11.3859648 123.030584,11.3859648 C123.030584,11.3859648 124.299649,11.7236238 124.324124,12.8976941 C124.287412,14.8344551 124.558448,17.9889726 124.558448,17.9889726 C124.562981,18.0390299 124.606038,18.0545021 124.63006,18.032659 C124.649096,18.0153665 124.650909,17.963944 124.650909,17.963944 C124.902909,15.9338945 126.052773,12.6019012 126.512809,11.7359106 C126.972392,10.86992 128.302645,11.4860794 128.302645,11.4860794 C129.895775,12.0357991 129.6823,12.9850668 129.6823,12.9850668 C129.205947,21.1307484 130.207603,21.6636307 130.799078,21.7136879 C131.3901,21.7637452 131.702381,20.997414 131.833819,20.6306308 C131.965258,20.2647577 132.12933,19.4652068 132.227683,19.1484808 C132.326036,18.83221 132.63877,18.8153725 132.63877,18.8153725 C132.63877,18.8153725 133,18.8986496 133,19.1985381 M40.5055198,6.82574836 C42.3017008,5.05645171 43.4143993,5.00366406 43.4143993,5.00366406 C43.4143993,5.00366406 43.764752,4.95042133 44.6145727,5.24985477 C45.4643933,5.5492882 45.4992926,6.00708461 45.4992926,6.00708461 L45.4992926,18.9559879 C45.6085229,22.5805887 44.7111123,23.9740008 43.6333131,24.9423813 C43.020989,25.4420437 42.5287729,25.505753 42.468039,25.505753 C42.319377,25.505753 42.2056144,25.4880054 42.1788734,25.2859561 C42.1530388,25.0834517 42.3366001,24.5551201 42.3366001,24.5551201 C42.8800321,23.1726295 42.836068,20.7785273 42.836068,20.7785273 L42.8886436,6.82574836 C42.8886436,6.82574836 42.9326076,6.57045633 42.7136938,6.64963781 C40.593448,8.48082344 40.3305701,11.0601376 40.2603183,12.3102039 C40.225419,14.1850759 41.0358079,15.1534563 41.0358079,15.1534563 C41.0358079,15.1534563 41.2461102,15.3382131 41.2198224,15.6021514 C41.2198224,15.9589232 40.8912251,15.9325293 40.8912251,15.9325293 C40.09398,15.8578985 38.8235548,14.950952 38.3680509,13.8592486 C37.9905039,13.0528716 38.0000219,12.1823304 38.0000219,12.1823304 C38.0263097,11.0860763 38.7097921,8.595045 40.5055198,6.82574836" id="Instagram-Logo" fill="#1D1D1B"></path>
            </g>
        </g>
    </g>
</svg>