<?xml version="1.0" encoding="UTF-8"?>
<svg width="17px" height="4px" viewBox="0 0 17 4" version="1.1" xmlns="http://www.w3.org/2000/svg" xmlns:xlink="http://www.w3.org/1999/xlink">
    <!-- Generator: Sketch 55 (78076) - https://sketchapp.com -->
    <title>More</title>
    <desc>Created with Sketch.</desc>
    <g id="Web" stroke="none" stroke-width="1" fill="none" fill-rule="evenodd">
        <g id="Home" transform="translate(-973.000000, -136.000000)" fill="#000000">
            <g id="Group-3" transform="translate(430.000000, 102.000000)">
                <g id="Group-2" transform="translate(0.000000, 20.000000)">
                    <g id="User-and-location" transform="translate(20.000000, 0.000000)">
                        <path d="M538.038462,18 C536.955134,18 536.076923,17.1045695 536.076923,16 C536.076923,14.8954305 536.955134,14 538.038462,14 C539.121789,14 540,14.8954305 540,16 C540,17.1045695 539.121789,18 538.038462,18 Z M531.5,18 C530.416672,18 529.538462,17.1045695 529.538462,16 C529.538462,14.8954305 530.416672,14 531.5,14 C532.583328,14 533.461538,14.8954305 533.461538,16 C533.461538,17.1045695 532.583328,18 531.5,18 Z M524.961538,18 C523.878211,18 523,17.1045695 523,16 C523,14.8954305 523.878211,14 524.961538,14 C526.044866,14 526.923077,14.8954305 526.923077,16 C526.923077,17.1045695 526.044866,18 524.961538,18 Z" id="More"></path>
                    </g>
                </g>
            </g>
        </g>
    </g>
</svg>