<svg class="cursor-pointer" width="24" height="24" viewBox="0 0 24 24" fill="none" xmlns="http://www.w3.org/2000/svg">
  <path d="M12 13.5C8.45 13.5 5.55 10.6 5.55 7.05005C5.55 3.50005 8.45 0.550049 12 0.550049C15.55 0.550049 18.45 3.45005 18.45 7.00005C18.45 10.55 15.55 13.5 12 13.5ZM12 2.05005C9.25 2.05005 7.05 4.30005 7.05 7.00005C7.05 9.70005 9.25 12 12 12C14.75 12 16.95 9.75005 16.95 7.05005C16.95 4.35005 14.75 2.05005 12 2.05005V2.05005ZM22 23.4501C21.6 23.4501 21.25 23.1001 21.25 22.7001V21C21.25 18.5 19.25 16.5 16.75 16.5H7.25C4.75 16.5 2.75 18.5 2.75 21V22.7001C2.75 23.1001 2.4 23.4501 2 23.4501C1.6 23.4501 1.25 23.1001 1.25 22.7001V21C1.25 17.7 3.95 15 7.25 15H16.75C20.05 15 22.75 17.7 22.75 21V22.7001C22.75 23.1001 22.4 23.4501 22 23.4501Z" fill="#262626" />
</svg>